<?xml version="1.0" standalone="no"?><svg t="1733299021447" class="icon" viewBox="0 0 2340 1024" version="1.1" xmlns="http://www.w3.org/2000/svg" p-id="6373" xmlns:xlink="http://www.w3.org/1999/xlink" width="457.03125" height="200"><path d="M1828.571429 0a512 512 0 0 1 0 1024H512A512 512 0 0 1 512 0h1316.571429z m-425.984 272.091429h-465.773715v69.046857h197.193143v177.298285h-227.620571v70.802286h227.620571v193.097143h72.557714v-193.097143h229.961143v-70.802286h-229.961143V341.138286h196.022858V272.091429z m550.034285 252.781714h-394.386285v256.877714h71.387428v-29.842286h248.100572v29.257143h74.898285V524.873143zM572.854857 230.546286c-58.514286 90.697143-165.010286 166.765714-269.750857 210.066285 17.554286 16.384 38.034286 39.789714 47.396571 57.929143 19.309714-9.362286 38.034286-19.309714 56.173715-29.842285v39.204571h141.604571v67.291429H414.866286v60.854857h133.412571v70.217143H338.212571v62.610285h497.371429v-62.610285H621.421714v-70.217143H760.685714v-60.854857H621.421714v-67.291429h143.945143v-37.449143c17.554286 9.947429 36.864 20.48 56.173714 31.012572 8.777143-20.48 29.257143-43.885714 46.811429-59.684572-93.622857-40.96-174.372571-92.452571-244.004571-166.765714l10.532571-15.798857-62.025143-28.672z m1304.868572 361.033143v93.622857H1629.622857v-93.622857h248.100572z m-189.001143-365.129143c-39.789714 70.217143-103.570286 141.019429-124.050286 159.158857-19.309714 18.724571-33.353143 29.842286-48.566857 33.938286 8.192 18.139429 19.309714 52.662857 22.820571 66.706285 31.012571-10.532571 72.557714-11.702857 383.268572-26.916571 12.288 16.384 22.820571 31.597714 30.427428 44.470857l59.099429-42.715429c-30.427429-49.152-100.059429-121.124571-153.892572-171.446857l-54.418285 36.278857c21.650286 21.650286 45.056 46.226286 67.876571 71.972572l-239.908571 7.606857a961.828571 961.828571 0 0 0 127.561143-149.211429l-70.217143-29.842285z m-652.434286 133.412571l-63.780571 18.724572c18.724571 39.204571 36.864 90.697143 42.715428 121.709714l67.876572-21.065143c-6.436571-32.768-27.501714-81.92-46.811429-119.369143z m267.995429-1.755428a693.394286 693.394286 0 0 1-50.907429 123.465142l60.854857 17.554286c19.309714-29.842286 43.300571-77.238857 64.365714-122.294857l-74.313142-18.724571z m-719.725715-33.353143c45.056 48.566857 91.867429 87.771429 143.36 121.709714H442.368A759.954286 759.954286 0 0 0 584.557714 324.754286z" fill="#808080" p-id="6374"></path></svg>