<?xml version="1.0" standalone="no"?><!DOCTYPE svg PUBLIC "-//W3C//DTD SVG 1.1//EN" "http://www.w3.org/Graphics/SVG/1.1/DTD/svg11.dtd"><svg t="1733299795866" class="icon" viewBox="0 0 1024 1024" version="1.1" xmlns="http://www.w3.org/2000/svg" p-id="7772" xmlns:xlink="http://www.w3.org/1999/xlink" width="200" height="200"><path d="M511.968645 0a511.968645 511.968645 0 1 0 511.968644 511.968645A511.968645 511.968645 0 0 0 511.968645 0z m256.736848 460.169759a151.947578 151.947578 0 0 1-87.355747 65.72062 83.279564 83.279564 0 0 1-24.457101 4.076184 29.097679 29.097679 0 0 1 0-58.195358 15.677629 15.677629 0 0 0 6.271051-1.254211 91.431931 91.431931 0 0 0 55.93778-40.949966 75.252618 75.252618 0 0 0 11.037051-39.633046 89.926879 89.926879 0 0 0-94.065773-83.843958 105.353665 105.353665 0 0 0-51.17178 13.42005 81.899933 81.899933 0 0 0-43.897361 70.423908v244.194746a138.402107 138.402107 0 0 1-72.681487 120.404189 159.660971 159.660971 0 0 1-79.767775 20.506338 148.373079 148.373079 0 0 1-153.578051-142.039316 136.144528 136.144528 0 0 1 19.753812-69.859514 151.947578 151.947578 0 0 1 87.355748-65.72062 85.662564 85.662564 0 0 1 24.4571-4.076183 29.097679 29.097679 0 1 1 0.313553 58.195358h-0.313553a15.614918 15.614918 0 0 0-6.271051 1.25421 96.009799 96.009799 0 0 0-55.93778 40.949966 75.252618 75.252618 0 0 0-11.03705 39.633046 90.11501 90.11501 0 0 0 94.94372 83.843958 105.228244 105.228244 0 0 0 51.17178-13.42005 81.899933 81.899933 0 0 0 43.89736-70.423908V390.372956a138.77837 138.77837 0 0 1 72.806908-120.52961 151.320473 151.320473 0 0 1 79.14067-21.509706 148.373079 148.373079 0 0 1 153.578052 142.039316 136.207239 136.207239 0 0 1-19.753813 69.859514z" fill="#00B240" p-id="7773"></path></svg>