<svg xmlns="http://www.w3.org/2000/svg" width="1000" height="437"><path fill="#808080" d="M790.46 0c60.65 2.69 116.56 29.39 156.59 74.96q45.61 51.91 52.95 122.93v41.21c-5.95 60-36.04 114.93-83.12 151.54q-55.2 42.91-126.36 46.36H210.51C95.89 432.15 5.27 341.77 0 227.36v-17.73q3.9-76.39 52.64-133.49C91.93 30.12 149.32 2.6 210.45 0h580.01ZM240.61 163.08q-.2 1.39-.91 4.14-6.99 26.96-21.45 50.99-.55.9-1.12.01-8.64-13.49-15.58-29-4.65-10.4-8.77-22.73-.19-.57-.74-.33l-30.87 13.11a1.59 1.59 0 0 0-.9 1.89q4.32 15.04 11.07 29.31 9.19 19.45 22.45 38.46.3.43-.06.81-14.23 14.97-30.17 26.34-9.28 6.61-18.12 11.99-.65.4-.65-.36 0-88.38-.01-118.05 0-2.41.94-4.26 9.71-19.24 16.08-37.58.63-1.81-1.21-2.36-13.25-3.89-29.8-9.17c-.99-.31-2.28-.18-3.33-1.18a.09.09 0 0 0-.14.04q-14.37 45.51-44.09 82.57-.49.61-.19 2.02 5.57 26.49 9.32 44.92.09.47.39.09l16.73-21.52q.8-1.04.8.27v95.27a.23.23 0 0 0 .23.23h33.76a.52.52 0 0 0 .52-.52v-26.77q0-.69.45-.16l23.46 27.76a1.23 1.23 0 0 0 1.63.21q18.83-13.11 32.72-25.73 6.19-5.63 14.99-14.16.38-.36.73.02 21.93 23.59 48.57 40.96.41.28.7-.13l23.56-32.61q.28-.4-.13-.66-27.48-17.09-48.57-37.42a.78.78 0 0 1-.1-1q23.24-34.46 33.28-76.12 1.57-6.53 1.72-12.66.41-16.74.11-33.48a.48.48 0 0 0-.48-.47H165.47a.47.47 0 0 0-.47.47v35.76a.35.35 0 0 0 .35.35h74.88q.44 0 .38.44Zm232.44 77.37h41.22q.46 0 .46-.47V206.5q0-.5-.49-.5h-7.01a.26.26 0 0 1-.26-.26v-62.29a.53.52 90 0 0-.52-.53h-41.99q-.46 0-.46-.46v-24.92q0-.56-.56-.55c-5.86.13-10.79-1-16.43-.91q-5.57.08-14.19-.09-.41-.01-.41.4v26q0 .53-.53.53h-17.32q-.52 0-.52.52v31.96a.6.6 0 0 0 .6.6h17.2a.58.58 0 0 1 .58.58v28.96q0 .46-.46.46H413.5q-.5 0-.5.5v33.48q0 .48.48.48h16.28q.74 0 .6.72c-3.13 15.8-11.2 28.42-22.72 39.16q-.64.6-.64-.28v-46.81q0-.59-.58-.57c-1.79.05-3.49-.58-5.06-.6q-8.88-.1-16.98-.46-.62-.02-.62.6v46.34q0 .33-.33.36l-5.26.5q-.29.02-.29-.27v-54.59q0-.56.56-.56h28.32a.24.24 0 0 0 .24-.24v-34.01a.75.75 0 0 0-.75-.75h-21.73a.48.48 0 0 1-.48-.48v-17.79a.73.73 0 0 1 .73-.73h19.71q.49 0 .49-.49v-33.73q0-.43-.44-.43h-33.19a.25.24-82.5 0 1-.23-.31l4-16.24a.64.64 0 0 0-.66-.79q-3.53.17-5.52-.24-2.86-.58-5.43-.64c-3.7-.09-6.49-.13-9.98-.63-4.63-.66-10.06.07-14.73-1.47a1.46 1.45-74.1 0 0-1.87 1.05c-1.01 4.31-2.22 10.32-3.6 14.97q-6.12 20.61-16.61 40.98-.25.49.21.78l18.82 11.7q.77.48 1.14-.34l6.05-13.4a1.36 1.36 0 0 1 1.24-.8h5.69q1.17 0 1.17 1.18v17.21q0 .64-.64.64h-32.35q-.46 0-.46.46v34.08q0 .46.46.46h33.97a1 .99 90 0 1 .99 1v55.73q0 .27-.26.27h-6.49q-.21 0-.21-.21v-47.43a.61.61 0 0 0-.59-.61l-21.86-.99q-.68-.03-.68.67v85.06a.36.35 84.6 0 0 .42.35q3.71-.67 6.13-.72 13.92-.27 30.35-.28c2.56 0 5.37-.66 7.85-.72q9.23-.24 27.85-.26c3.74-.01 6.44-.34 10.99-.81q.51-.05.51-.56v-8.5q0-1.03.59-.18l9.63 13.96a1.11 1.11 0 0 0 1.66.2c14.53-12.98 28-27.99 35.18-46.16q.48-1.24 1.09-.06c9.74 18.81 23.73 33.46 40.25 46.96q.18.14.32-.04l22.99-30.71q.32-.44-.14-.73c-12.5-7.77-25.44-17.69-34.7-29.1q-7-8.61-11.14-19.23-.18-.45.31-.45Zm159.99-21.41c0 27.69 4.22 59.42 32.73 72.24 6.79 3.05 15.58 4.85 23.27 5.56q3.16.29 4.98.5c3.63.43 7.8.31 11.02.31 3.21 0 7.38.12 11.02-.31q1.81-.21 4.97-.5c7.69-.71 16.48-2.51 23.28-5.56 28.5-12.82 32.73-44.56 32.73-72.24 0-27.68-4.23-59.42-32.73-72.24-6.8-3.05-15.59-4.85-23.28-5.56q-3.16-.29-4.98-.5c-3.63-.42-7.8-.3-11.01-.3-3.22 0-7.39-.12-11.02.3q-1.82.21-4.98.5c-7.69.71-16.48 2.51-23.28 5.56-28.5 12.82-32.72 44.56-32.72 72.24Zm275.19-38.43q.13.29.53.38.56.11.56-.46v-34.27a.68.68 0 0 0-.48-.65q-9.6-2.96-19.08-4.13-18.37-2.28-37.5-.02c-18.6 2.19-34.53 10.23-40.28 29.28q-1.52 5.05-1.96 11.76-.71 11.1 1.05 20.75 2.55 13.89 14.17 20.69 5.52 3.23 9.19 4.53 9.03 3.21 19.1 5.47 7.83 1.75 14.65 5.34 3.77 1.99 4.63 5.21 1 3.76.26 7.85-.95 5.3-5.31 6.59c-1.22.36-2.43 1.04-3.3 1.04-3.97.02-8.06 1.16-12.25.94-13.63-.72-26.94-1.88-40.06-5.65q-1.14-.33-1.14.86v36.09a.63.62-84.5 0 0 .5.62q12.22 2.64 22.38 3.69 3.51.37 7.48.74 3.58.33 7.39.34 6.21.02 12.22 0c4.49-.01 9.44-.65 13.1-1.09q10.25-1.22 19.48-5.22 19.34-8.37 22.7-30.05 2.02-13.04-.15-28.55c-1.71-12.19-8.99-20.33-19.82-25.36q-9.54-4.44-18.39-6.71-11.81-3.04-17.38-4.82-2.22-.72-5.29-2.54c-4.13-2.46-3.83-9.25-1.49-12.5 2.45-3.41 7.48-4.6 11.51-4.77q18.07-.73 35.87 2.85c1.5.3 4.02 1.14 6.24 1.2q.61.02.87.57Zm-311.95-37.64a.53.53 0 0 0-.53-.53h-42.82a.53.53 0 0 0-.53.53v152.06a.53.53 0 0 0 .53.53h42.82a.53.53 0 0 0 .53-.53V142.97Z"/><rect width="15.02" height="30" x="-7.51" y="-15" fill="#d81e06" rx=".74" transform="rotate(.1 -109199.161 270245.032)"/><path fill="#d81e06" d="M705.16 175.9c10.47 0 19.14 2.21 22.71 13.18q1.61 4.96 1.88 7.35.53 4.86.78 6.66c.67 5.02.53 10.46.53 15.6.01 5.14.15 10.58-.52 15.61q-.25 1.79-.77 6.65-.27 2.39-1.88 7.36c-3.57 10.97-12.23 13.18-22.7 13.19-10.48 0-19.14-2.21-22.72-13.18q-1.61-4.96-1.88-7.35-.53-4.86-.77-6.66c-.68-5.02-.54-10.46-.54-15.6 0-5.14-.14-10.58.53-15.6q.24-1.8.77-6.66.26-2.39 1.87-7.36c3.57-10.97 12.24-13.18 22.71-13.19Z"/></svg>