<svg xmlns="http://www.w3.org/2000/svg" width="3000" height="1314"><path fill="#808080" fill-rule="evenodd" d="M2356.767.03c11.767-.141 23.592.159 33.11 1.92h7.677c11.654 1.988 25.204 2.373 36.229 4.558l7.677.24c12.336 2.372 26.499 5.011 38.388 7.678l5.758.24c36.072 8.601 71.627 19.755 103.407 32.632 10.585 4.289 20.379 7.545 30.47 11.997l23.992 12.477 31.91 16.555c13.204 7.762 25.639 16.322 37.907 24.954 18.808 13.866 38.278 27.998 56.862 42.709 11.172 8.843 20.421 20.145 31.43 29.032 6.862 5.54 12.524 12.485 18.714 18.716l9.117 8.158c11.702 14.502 24.693 27.979 35.988 42.949 17.867 23.678 33.64 48.383 49.185 74.62 9.842 16.612 18.59 33.365 26.871 51.827l3.599 5.519c8.352 19.194 14.794 39.007 22.552 58.785 13.242 33.753 20.58 73.12 27.831 112.291 2.334 12.603 2.342 24.684 4.319 37.19l.24 66.223v58.785l-3.119 20.155v5.998c-5.88 29.232-9.907 59.683-17.994 86.618-19.158 63.806-42.893 120.605-75.096 171.316-12 18.897-25.404 37.004-38.388 55.186-8.21 11.498-18.31 21.527-27.111 32.632l-9.597 9.117c-9.047 11.606-19.628 21.627-30.71 31.192-3.561 3.074-6.114 7.555-9.837 10.557-16.593 13.381-32.155 28.104-49.424 40.79-35.88 26.359-75.636 48.911-116.842 69.822l-11.996 4.319-17.275 8.398-10.076 2.879c-8.676 3.583-18.238 7.503-27.352 11.037-12.481 4.84-25.889 7.042-39.347 11.037l-27.831 7.678c-11.131 2.819-21.638 3.327-33.349 5.519-11.382 2.13-25.647 3.926-37.428 5.998l-10.797.24c-9.134 1.592-19.947 1.686-29.03 3.12H670.591c-19.153.001-41.232 1.362-57.821-1.68h-8.397l-25.432-3.119-8.158-.24c-18.231-3.748-38.534-6.395-55.662-10.557l-6.238-.48-62.859-18.236c-23.44-7.407-43.608-18.25-65.979-25.913l-23.752-12.717c-11.202-4.206-20.142-10.082-29.751-15.836-20.646-12.362-40.21-25.008-59.261-38.63-14.894-10.65-28.349-22.505-42.466-33.831l-19.194-17.995c-8.178-6.603-16.433-14.854-23.032-23.034l-16.555-17.516c-13.162-16.39-27.495-31.944-39.827-49.187-34.333-48.003-64.254-101.528-86.852-161.239-12.243-32.35-20.363-67.33-28.311-103.893-3.847-17.698-4.791-35.608-7.918-53.506v-8.158C-.257 699.443.009 678.558.007 656.981c-.001-21.599-.273-42.45 3.119-60.944v-8.158c1.863-10.53 1.803-22.439 4.079-33.351 5.347-25.639 10.527-50.945 16.555-75.581l4.798-13.677c6.546-20.733 13.886-40.002 20.634-59.984l9.357-19.195c18.615-45.48 45.426-84.481 71.497-122.609l10.556-12.237c37.885-50.061 83.331-92.103 134.837-128.606 32.895-23.314 67.639-45.207 107.005-62.145l10.317-5.758c34.543-15.202 72.062-26.404 110.844-37.191l9.597-1.199c22.27-5.305 47.044-8.286 71.017-12.717l11.756-.24c6.904-1.261 16.505-1.677 22.553-3.119h1150.909l587.33-.24ZM793.432 540.611v50.627H706.1v91.417l93.09.24-.24 151.401-18.714.959-.24-128.367-59.981-2.399v225.782l220.489-5.519.24-28.552h1.2c.333 2.509 5.472 8.083 6.957 10.557 4.825 8.038 10.342 14.867 15.595 22.314l6.238 9.598c4.281-2.362 6.412-6.693 10.077-9.598 5.943-4.71 10.635-9.951 15.835-15.356 15.857-16.48 32.673-32.71 45.106-52.546 7.224-11.528 14.836-23.593 20.393-36.231l5.038-13.676.48.24c3.371 8.66 9.221 17.05 13.916 24.713 9.318 15.213 19.44 28.233 29.99 41.989l9.357 9.118c5.705 7.223 11.21 13.286 18.474 18.955l11.036 11.517 25.192 21.115 2.16-1.92 14.875-20.874 29.27-39.59c3.624-4.939 13.043-14.414 14.876-19.675l-8.878-5.519c-8.044-5.373-15.402-11.169-23.032-16.795-27.68-20.412-52.918-41.495-71.497-71.022-5.133-8.157-9.596-16.268-14.155-25.434-1.75-3.517-4.455-6.686-4.799-11.517h111.564v-89.977h-20.393V469.11h-113.484v-50.867c0-3.15.763-16.323-.48-17.756l-82.053-2.399v71.022h-48.704v87.817h48.704v79.659h-51.823v89.977h46.545c-.062 9.472-4.092 17.461-6.718 24.954-7.567 21.591-16.326 38.094-28.551 54.466l-6.718 6.958c-4.813 6.337-14.859 19.386-21.593 23.034h-.24V706.409l-59.741-2.16v125.008c-4.943.414-10.421 1.178-16.554 1.2V682.655h76.775v-91.417h-59.741v-50.627h54.463v-91.176h-89.731c.035-2.499 1.33-3.83 1.919-5.999 2.699-9.935 4.331-18.519 6.958-27.833.481-1.706 2.176-11.117 1.679-11.517-3.572-2.362-20.634-.687-26.631-1.679-15.828-2.62-35.92-1.657-51.823-4.799-2.582-.51-19.418-1.98-20.874-.72l-2.159 10.797c-5.762 18.705-8.619 38.754-15.595 56.626l-21.593 52.306-14.395 30.712 51.103 31.912.72-.48c3.249-8.759 8.344-16.44 11.996-24.713l5.278-13.437h20.874ZM187.867 934.59h89.251v-74.861c1.017.075.951-.015 1.44.48l5.038 6.478 8.877 9.118 16.075 20.155c7.219 9.044 15.008 17.712 22.313 26.873 4.003 5.02 9.127 8.85 12.716 14.396l.719-.24 6.958-4.319c8.216-5.825 16.091-12.337 24.232-18.475l41.267-32.391 12.716-12.477c15.488-12.444 28.411-26.774 42.706-40.31h.96c.907 2.767 4.037 4.873 5.998 6.718l9.117 9.838c4.242 2.741 8.172 6.472 11.276 10.317 2.504 3.101 5.293 5.42 8.398 7.918l13.195 13.197 14.636 11.277c12.629 9.827 24.386 20.34 37.668 29.752l17.034 11.997c4.248 3.015 7.656 7.149 13.196 8.878l47.265-66.463c3.178-4.511 13.987-16.286 15.115-20.875-13.759-9.611-28.207-17.935-41.747-27.593L579.9 790.627l-10.316-9.838-18.234-15.116-7.198-7.678c-3.225-2.512-6.256-4.294-8.157-8.158 26.494-37.464 47.544-79.871 65.499-125.727 7.123-18.194 11.915-37.158 17.754-56.626l11.276-42.709v-99.814H332.3v95.015c6.673.98 13.953.24 21.593.24h178.983c-.395 6.156-3.178 13.494-4.799 18.956-3.245 10.93-5.796 21.034-9.597 30.712-9.518 24.234-17.593 48.763-29.99 70.062-4.213 7.238-8.151 14.719-11.996 21.834-1.734 3.209-2.311 7.898-6.238 8.878-.779-3.988-5.622-8.492-7.678-11.997-5.715-9.744-10.716-19.422-16.314-29.033-6.065-10.411-10.661-21.808-15.595-33.111-9.211-21.099-18.615-42.869-26.152-65.743h-.24l-61.9 26.633c-4.034 1.732-21.393 7.541-23.272 9.837 1.623 3.153 1.683 7.116 2.879 11.037l11.276 33.112c10.955 27.702 24.053 55.146 38.628 79.899l25.671 41.75c1.929 2.904 11.453 15.863 11.756 18.475-2.969 1.132-5 5.709-7.437 7.678l-21.113 20.395c-8.735 7.046-16.67 15.286-25.432 22.074-15.515 12.02-31.487 23.331-47.985 34.311l-19.673 12.957c-3.133 2.084-6.545 5.234-10.557 6.238V535.093c3.222-7.874 8.501-15.836 11.996-23.754 8.774-19.872 16.779-38.446 24.952-59.505 3.3-8.502 8.935-17.464 10.077-27.113l-.24-.24c-8.389-.516-16.364-4.926-23.512-7.438l-67.898-20.395-.24.24c-.229 7.354-4.402 13.542-6.718 19.435-5.268 13.402-9.963 26.882-15.355 39.59-17.006 40.079-35.601 76.157-58.301 110.372l-26.152 36.23c-3.352 4.565-8.135 7.694-10.797 12.957 3.647 8.647 3.794 22.143 6.238 31.912 2.534 10.124 3.98 22.014 6.718 32.871 4.571 18.124 9.276 38.027 12.476 57.585 6.196-4.654 10.203-13.247 14.875-19.435 6.869-9.096 14.165-17.926 21.114-27.113 3.264-4.315 7.849-8.226 10.316-13.196h.96l.24.24V934.59Zm1470.246-520.426c-4.099 2.214-11.302-.313-16.315.48-15.245 2.41-27.555 4.215-32.869 16.315-8.174 18.608-6.935 75.043 6.478 85.418 14.423 11.158 72.842 11.658 91.89 3.36 9.304-4.054 13.394-14.829 15.355-26.154v-11.037c1.188-7.028 1.695-17.364.48-24.954-1.598-9.975.108-20.317-4.079-28.492-9.423-15.474-35.041-15.03-60.94-14.936Zm-360.124 54.466v403.576h264.874v-98.855h-149.711V468.63h-115.163Zm598.847 89.737h-109.645v313.839h109.645v-155.24c-.001-19.495-3.142-51.386 5.038-62.864 7.107-9.973 16.018-11.675 30.47-14.396 3.724-.701 9.147-2.097 14.156-1.2 13.915 2.493 27.699 1.986 34.549 11.277 10.246 13.9 6.479 43.678 6.478 66.223v156.2h109.644V661.3c.001-8.731.989-18.24-.48-26.633-3.846-21.981-10.13-41.776-21.593-56.146-10.261-12.864-28.197-18.416-47.025-22.794l-11.036-2.399h-10.557c-5.095-.905-12.852-2.254-19.193-1.2-13.793 2.292-27.544 1.75-39.828 5.519-14.414 4.423-27.661 11.553-38.387 19.915-4.581 3.571-6.795 9.762-11.996 12.716h-.24v-31.911Zm-804.701-1.44h40.067l-.24 79.659h-39.827v-79.659Zm517.034 1.44v313.839h109.644V558.367h-109.644Zm863.001 313.839V558.367h-108.925v153.32c.001 17.693 2.857 51.701-3.838 62.384-4.854 7.744-14.26 14.087-24.473 16.316l-9.596.72-9.117.96c-12.05-1.494-27.812-3.035-33.83-10.798-10.887-14.044-7.918-43.338-7.917-67.422v-155.48h-81.334c-4.314-.001-26.283-1.066-28.071.479-2.06 4.622-.24 25.359-.24 32.872V753.197c-.001 18.925-1.005 36.749 2.639 52.786 2.923 12.859 7.31 26.188 13.436 36.231 16.098 26.388 47.675 35.506 90.211 35.511 12.285.001 24.688.385 34.789-2.16 20.448-5.151 35.621-13.673 49.664-24.953 3.33-2.676 4.889-6.896 7.917-9.838h.96l6.718 31.432h101.007Zm47.505-313.839c11.607 18.607 23.987 36.481 36.468 54.226l40.067 60.944 18.714 27.593c1.762 2.31 7.314 7.007 6.238 10.797l-29.99 44.629-53.743 79.899-24.712 35.511v.24h131.718c.839-3.302 3.219-5.345 4.798-7.918l9.117-15.836c9.219-15.042 17.25-31.133 26.392-46.068 1.967-3.215 10.915-21.272 12.716-22.314l4.078-.24c.875 3.363 2.959 5.363 4.559 7.918l9.357 17.035c7.12 16.149 17.051 31.254 25.911 46.068l11.037 21.355h132.437v-.24l-1.919-1.919c-4.922-12.216-15.031-22.198-21.833-33.112-8.628-13.843-18.251-26.641-26.872-40.31l-29.27-44.388-18.714-27.833c-3.107-4.388-8.131-8.056-9.357-14.156 1.847-.921 6.967-9.373 8.397-11.517l19.674-29.513 50.624-76.3a414829.32 414829.32 0 0 1 23.512-34.311v-.24l-129.558.24c-.592 2.824-2.529 5.201-3.839 7.438-4.468 7.626-8.998 14.909-13.436 22.314l-30.71 55.666-4.798-.24c-.449-3.169-2.694-4.946-4.079-7.199-3.454-5.619-6.305-11.779-9.597-17.275l-32.869-60.944h-130.518Z"/></svg>