<svg 
 xmlns="http://www.w3.org/2000/svg"
 xmlns:xlink="http://www.w3.org/1999/xlink"
 width="3000px" height="1313px">
<path fill-rule="evenodd"  fill="rgb(128, 128, 128)"
 d="M621.364,0.270 C1044.710,0.270 1468.183,0.270 1891.529,0.270 C2009.299,0.270 2127.103,0.270 2244.873,0.270 C2324.453,0.264 2407.187,-2.766 2472.279,11.786 C2637.990,48.832 2765.299,127.736 2854.408,241.381 C2936.834,346.505 2999.751,464.653 2999.775,653.070 C2999.780,688.464 3001.443,725.466 2995.457,755.272 C2986.077,801.982 2976.873,846.079 2960.915,886.264 C2895.642,1050.631 2794.928,1152.826 2650.030,1237.495 C2597.239,1268.343 2533.031,1285.816 2465.082,1300.832 C2438.156,1306.783 2409.605,1306.148 2380.885,1310.908 C2312.046,1310.908 2243.187,1310.908 2174.348,1310.908 C1998.533,1310.908 1822.666,1310.908 1646.852,1310.908 C1402.198,1310.908 1157.472,1310.908 912.819,1310.908 C776.765,1310.911 614.479,1321.840 504.063,1293.635 C300.039,1241.517 140.233,1109.261 62.204,931.608 C42.414,886.551 26.633,839.028 13.268,785.501 C-13.725,677.390 3.581,523.943 37.016,437.869 C62.080,373.348 91.414,317.655 128.411,265.852 C145.680,245.222 162.955,224.585 180.225,203.955 C194.616,190.521 209.012,177.084 223.403,163.650 C301.191,101.414 370.822,56.798 479.595,24.021 C509.847,14.905 542.116,10.843 575.307,4.588 C590.658,3.149 606.014,1.709 621.364,0.270 ZM296.087,956.798 C330.147,956.798 364.216,956.798 398.276,956.798 C398.516,928.732 398.756,900.656 398.996,872.589 C423.701,901.616 448.413,930.651 473.118,959.677 C485.351,950.801 497.587,941.923 509.820,933.047 C544.500,907.538 593.150,871.086 618.486,837.322 C620.165,838.762 621.844,840.201 623.523,841.641 C629.477,853.811 645.039,863.279 654.468,872.589 C680.392,898.188 708.467,921.015 738.666,942.404 C747.498,948.659 756.897,958.642 768.171,961.837 C791.677,928.972 815.190,896.097 838.696,863.233 C838.456,862.513 838.216,861.793 837.976,861.074 C821.465,855.438 805.643,839.871 791.919,830.125 C759.304,806.965 715.888,779.171 691.889,748.075 C696.686,740.639 701.485,733.200 706.282,725.763 C717.795,705.133 729.311,684.496 740.825,663.866 C763.744,611.905 786.357,555.558 798.396,493.289 C798.396,455.147 798.396,416.993 798.396,378.851 C685.424,378.851 572.417,378.851 459.445,378.851 C459.445,415.074 459.445,451.308 459.445,487.531 C535.240,487.531 611.057,487.531 686.852,487.531 C686.852,487.771 686.852,488.011 686.852,488.251 C666.843,551.497 649.138,606.550 617.766,656.669 C617.286,656.429 616.807,656.189 616.327,655.949 C610.091,645.874 603.852,635.795 597.616,625.720 C586.343,602.691 575.066,579.655 563.793,556.625 C556.358,537.195 548.920,517.758 541.484,498.327 C517.739,508.642 493.986,518.960 470.240,529.276 C463.303,532.261 447.351,534.863 445.052,542.231 C453.800,566.924 460.239,591.162 470.240,614.204 C491.315,662.762 519.174,705.877 546.522,748.075 C522.581,781.960 469.793,818.710 434.258,842.360 C422.265,850.037 410.269,857.716 398.276,865.392 C398.276,744.968 398.276,624.508 398.276,504.085 C403.313,494.489 408.351,484.891 413.388,475.295 C423.681,451.997 432.556,429.276 442.174,404.761 C445.292,395.885 448.411,387.007 451.529,378.131 C416.510,367.576 381.481,357.018 346.462,346.463 C342.712,374.488 326.647,402.638 316.237,426.353 C288.194,490.236 252.634,541.918 214.048,594.052 C223.642,640.830 233.239,687.622 242.834,734.400 C243.553,733.920 244.273,733.440 244.993,732.961 C261.782,710.891 278.577,688.815 295.367,666.745 C295.607,666.745 295.847,666.745 296.087,666.745 C296.087,763.420 296.087,860.124 296.087,956.798 ZM981.904,510.562 C981.904,529.274 981.904,547.990 981.904,566.702 C948.804,566.942 915.694,567.182 882.594,567.421 C882.594,602.205 882.594,636.999 882.594,671.783 C917.853,671.783 953.122,671.783 988.381,671.783 C988.381,728.637 988.381,785.507 988.381,842.360 C981.665,842.600 974.947,842.840 968.231,843.080 C968.231,794.863 968.231,746.631 968.231,698.413 C944.965,697.454 921.692,696.494 898.426,695.534 C898.666,781.174 898.906,866.840 899.145,952.480 C982.615,950.321 1066.110,948.161 1149.580,946.002 C1149.820,935.207 1150.060,924.409 1150.300,913.614 C1150.300,914.094 1150.300,914.574 1150.300,915.054 C1161.333,930.646 1172.370,946.244 1183.403,961.837 C1185.082,960.157 1186.762,958.478 1188.441,956.798 C1192.758,952.720 1197.077,948.641 1201.394,944.563 C1230.464,921.099 1256.134,888.275 1275.517,855.316 C1281.274,843.081 1287.032,830.843 1292.789,818.609 C1293.028,818.609 1293.268,818.609 1293.508,818.609 C1308.323,865.437 1377.553,934.854 1415.127,961.837 C1438.633,930.891 1462.146,899.936 1485.652,868.991 C1485.412,868.511 1485.172,868.031 1484.933,867.551 C1443.050,851.014 1356.775,768.865 1346.762,721.445 C1388.736,721.445 1430.724,721.445 1472.699,721.445 C1472.699,687.141 1472.699,652.827 1472.699,618.523 C1465.023,618.523 1457.346,618.523 1449.670,618.523 C1449.670,555.192 1449.670,491.843 1449.670,428.513 C1406.736,428.513 1363.789,428.513 1320.855,428.513 C1320.855,402.605 1320.855,376.689 1320.855,350.781 C1289.433,350.061 1258.003,349.342 1226.582,348.622 C1226.582,375.249 1226.582,401.885 1226.582,428.513 C1208.113,428.752 1189.638,428.992 1171.169,429.232 C1171.169,462.577 1171.169,495.931 1171.169,529.276 C1189.638,529.276 1208.113,529.276 1226.582,529.276 C1226.582,559.022 1226.582,588.777 1226.582,618.523 C1207.153,618.523 1187.719,618.523 1168.291,618.523 C1168.291,652.827 1168.291,687.141 1168.291,721.445 C1185.800,721.445 1203.315,721.445 1220.825,721.445 C1220.825,721.685 1220.825,721.925 1220.825,722.165 C1205.821,772.971 1186.940,816.038 1149.580,843.800 C1149.580,795.103 1149.580,746.391 1149.580,697.694 C1126.794,696.734 1104.001,695.774 1081.214,694.815 C1081.214,742.073 1081.214,789.345 1081.214,836.603 C1075.218,837.082 1069.220,837.562 1063.223,838.042 C1063.223,782.628 1063.223,727.197 1063.223,671.783 C1092.246,671.783 1121.277,671.783 1150.300,671.783 C1150.300,636.760 1150.300,601.725 1150.300,566.702 C1127.753,566.702 1105.200,566.702 1082.654,566.702 C1082.654,547.990 1082.654,529.274 1082.654,510.562 C1103.281,510.562 1123.915,510.562 1144.543,510.562 C1144.303,475.779 1144.063,440.984 1143.823,406.201 C1110.243,406.201 1076.653,406.201 1043.073,406.201 C1043.073,405.481 1043.073,404.761 1043.073,404.042 C1047.151,387.729 1051.230,371.412 1055.307,355.100 C1017.170,352.221 979.022,349.341 940.885,346.463 C934.545,395.381 915.818,439.791 898.426,479.614 C892.190,492.568 885.951,505.526 879.715,518.479 C899.623,530.474 919.537,542.472 939.445,554.466 C946.161,539.833 952.879,525.196 959.595,510.562 C967.031,510.562 974.469,510.562 981.904,510.562 ZM1779.985,388.207 C1708.508,388.207 1637.009,388.207 1565.532,388.207 C1565.532,438.344 1565.532,488.496 1565.532,538.632 C1599.832,538.632 1634.141,538.632 1668.441,538.632 C1668.441,522.080 1668.441,505.523 1668.441,488.970 C1779.014,488.970 1889.621,488.970 2000.195,488.970 C2000.195,505.523 2000.195,522.080 2000.195,538.632 C2035.214,538.632 2070.243,538.632 2105.262,538.632 C2105.262,488.496 2105.262,438.344 2105.262,388.207 C2038.103,387.967 1970.923,387.727 1903.763,387.488 C1900.645,374.294 1897.526,361.096 1894.408,347.902 C1852.433,347.902 1810.446,347.902 1768.471,347.902 C1772.308,361.336 1776.147,374.774 1779.985,388.207 ZM2416.147,348.622 C2416.147,397.319 2416.147,446.031 2416.147,494.728 C2359.301,494.728 2302.438,494.728 2245.592,494.728 C2245.592,582.767 2245.592,670.832 2245.592,758.871 C2309.154,758.871 2372.735,758.871 2436.297,758.871 C2436.057,767.507 2435.817,776.146 2435.577,784.782 C2354.266,784.782 2272.930,784.782 2191.619,784.782 C2191.619,816.447 2191.619,848.122 2191.619,879.787 C2273.170,879.787 2354.746,879.787 2436.297,879.787 C2436.297,906.894 2436.297,934.009 2436.297,961.117 C2472.035,961.117 2507.785,961.117 2543.523,961.117 C2543.523,934.009 2543.523,906.894 2543.523,879.787 C2624.834,879.787 2706.170,879.787 2787.481,879.787 C2787.481,848.122 2787.481,816.447 2787.481,784.782 C2706.170,784.782 2624.834,784.782 2543.523,784.782 C2543.523,776.146 2543.523,767.507 2543.523,758.871 C2607.325,758.871 2671.146,758.871 2734.948,758.871 C2734.948,670.832 2734.948,582.767 2734.948,494.728 C2664.670,494.728 2594.371,494.728 2524.093,494.728 C2524.093,484.653 2524.093,474.575 2524.093,464.499 C2603.725,464.499 2683.381,464.499 2763.013,464.499 C2763.013,436.432 2763.013,408.357 2763.013,380.290 C2683.381,380.290 2603.725,380.290 2524.093,380.290 C2523.853,370.455 2523.613,360.616 2523.373,350.781 C2487.635,350.061 2451.885,349.342 2416.147,348.622 ZM1533.868,576.058 C1533.868,609.403 1533.868,642.757 1533.868,676.102 C1575.123,676.102 1616.391,676.102 1657.646,676.102 C1642.611,706.620 1618.986,732.352 1600.795,760.311 C1648.526,779.981 1696.272,799.658 1744.003,819.329 C1744.003,819.569 1744.003,819.809 1744.003,820.049 C1725.054,824.607 1706.100,829.166 1687.151,833.724 C1643.393,843.962 1587.545,850.473 1538.906,851.717 C1555.935,888.660 1572.970,925.614 1590.000,962.556 C1615.665,957.759 1641.337,952.959 1667.002,948.162 C1699.135,939.930 1730.149,935.329 1760.555,925.850 C1802.874,912.656 1841.070,896.105 1877.136,877.627 C1921.750,897.778 1966.376,917.935 2010.990,938.085 C2022.362,943.719 2056.761,964.533 2067.121,963.996 C2081.513,931.371 2095.908,898.736 2110.300,866.112 C2062.329,845.241 2014.343,824.365 1966.372,803.495 C1979.391,784.274 1993.817,765.840 2005.952,745.196 C2016.985,722.167 2028.022,699.131 2039.055,676.102 C2070.716,676.102 2102.387,676.102 2134.048,676.102 C2134.048,642.757 2134.048,609.403 2134.048,576.058 C2034.748,576.058 1935.417,576.058 1836.117,576.058 C1843.313,559.746 1850.510,543.429 1857.706,527.116 C1819.569,519.680 1781.420,512.241 1743.283,504.804 C1733.209,528.553 1723.132,552.309 1713.058,576.058 C1653.334,576.058 1593.592,576.058 1533.868,576.058 ZM1320.855,529.276 C1335.726,529.276 1350.601,529.276 1365.472,529.276 C1365.472,559.022 1365.472,588.777 1365.472,618.523 C1350.601,618.283 1335.726,618.043 1320.855,617.803 C1320.855,588.297 1320.855,558.782 1320.855,529.276 ZM2349.940,572.460 C2443.244,572.460 2536.576,572.460 2629.880,572.460 C2629.880,580.136 2629.880,587.815 2629.880,595.491 C2536.576,595.491 2443.244,595.491 2349.940,595.491 C2349.940,587.815 2349.940,580.136 2349.940,572.460 ZM2349.940,664.586 C2443.244,664.586 2536.576,664.586 2629.880,664.586 C2629.880,672.262 2629.880,679.941 2629.880,687.617 C2536.576,687.617 2443.244,687.617 2349.940,687.617 C2349.940,679.941 2349.940,672.262 2349.940,664.586 ZM1782.864,676.102 C1826.997,676.102 1871.144,676.102 1915.277,676.102 C1908.820,708.156 1877.600,737.216 1859.145,758.871 C1832.761,748.796 1806.369,738.718 1779.985,728.642 C1773.716,726.325 1752.885,722.352 1756.957,717.126 C1765.591,703.453 1774.229,689.775 1782.864,676.102 Z"/>
</svg>