<?xml version="1.0" standalone="no"?><!DOCTYPE svg PUBLIC "-//W3C//DTD SVG 1.1//EN" "http://www.w3.org/Graphics/SVG/1.1/DTD/svg11.dtd"><svg t="1733300473924" class="icon" viewBox="0 0 1024 1024" version="1.1" xmlns="http://www.w3.org/2000/svg" p-id="53486" xmlns:xlink="http://www.w3.org/1999/xlink" width="200" height="200"><path d="M308.8 737l27.8-101 27.6 101h36.1l53.2-157.5h-44.2l-27.5 101.9-27.3-101.9h-36l-27.3 101.9-27.5-101.9h-44.2L272.7 737zM680.6 721.7C692 731.9 707.2 737 726 737c24.8 0 44.5-8.3 58.9-25 13-15.3 19.6-35.1 19.6-59.2 0-23-6.4-42.3-19.2-57.7-14.1-16.7-33.3-25.1-57.4-25.1-17.3 0-32.2 6.5-44.8 19.4V512h-42.4v220.9h39.9v-11.2z m1.2-69.5c0-15.6 3.9-27.7 11.7-36.4 6.8-8 15.5-12.1 25.9-12.1 14.9 0 25.8 4.6 32.6 13.7 6 8.2 9.1 20.1 9.1 35.5 0 15.7-2.8 27.7-8.5 36.2-6.8 9.6-17.5 14.4-31.9 14.4-12.7 0-22.6-4.7-29.5-14.2-6.3-8.6-9.4-20.1-9.4-34.6v-2.5zM476.9 716.4c14.7 13.7 34.3 20.6 59 20.6 21.9 0 40.4-5.7 55.4-17 11.6-9.3 19.4-21 23.4-35.2l1.1-4.1H574l-0.9 1.7c-4.1 7.7-8.5 13.1-13.2 16.3-6.2 4-14.4 6.1-24.4 6.1-11.7 0-20.7-3.2-27-9.5-5.7-5.8-9.3-14.1-10.8-25h119.5V667c0-26.5-6.7-47.4-20-62.5-14.5-16.7-35.5-25-63-25-25 0-44.6 7.6-58.9 22.9-14.6 14.8-22 33.4-22 55.7 0.2 24.7 8 44.1 23.6 58.3z m33.1-96.7c6-5.3 14.4-8 25.3-8 21.5 0 34.1 9.4 37.9 28.2h-74.3c2.1-8.8 5.8-15.5 11.1-20.2zM798.4 170.2h-125c-18.6 0-33.8 15.1-33.8 33.8 0 18.6 15.1 33.8 33.8 33.8h125c18.6 0 33.8-15.1 33.8-33.8-0.1-18.7-15.2-33.8-33.8-33.8z" p-id="53487" fill="#1296db"></path><path d="M199.2 204m-33.8 0a33.8 33.8 0 1 0 67.6 0 33.8 33.8 0 1 0-67.6 0Z" p-id="53488" fill="#1296db"></path><path d="M841.3 62H182.7C116.1 62 62 116.1 62 182.7v658.5C62 907.9 116.1 962 182.7 962h658.5c66.7 0 120.7-54.1 120.7-120.7V182.7C962 116.1 907.9 62 841.3 62z m54.8 779.3c0 30.3-24.6 54.9-54.9 54.9H182.7c-30.3 0-54.9-24.6-54.9-54.9V348.7h768.3v492.6z m0-558.4H127.9V182.7c0-30.3 24.6-54.9 54.9-54.9h658.5c30.3 0 54.9 24.6 54.9 54.9v100.2z" p-id="53489" fill="#1296db"></path><path d="M436.1 204m-33.8 0a33.8 33.8 0 1 0 67.6 0 33.8 33.8 0 1 0-67.6 0Z" p-id="53490" fill="#1296db"></path><path d="M284.346594 209.398778a33.8 33.7 80.787 1 0 66.530538-10.791088 33.8 33.7 80.787 1 0-66.530538 10.791088Z" p-id="53491" fill="#1296db"></path></svg>