<svg xmlns="http://www.w3.org/2000/svg" width="24" height="24" viewBox="0 0 24 24">
  <defs>
    <style>
      .cls-1 {
        fill: none;
        stroke: #000;
        stroke-linecap: square;
        stroke-width: 1px;
        stroke-dasharray: 0.001 2;
      }

      .cls-2 {
        fill-rule: evenodd;
      }
    </style>
  </defs>
  <rect id="圆角矩形_1" data-name="圆角矩形 1" class="cls-1" x="1" y="1" width="22" height="22" rx="4" ry="4"/>
  <path id="备用" class="cls-2" d="M4.706,19.674V19H3.359v0.674H4.706Zm0-4.042V19H6.054V18.327H5.38V15.632H6.054V14.959H5.38V12.938H4.706v2.021H3.359v0.674H4.706Zm6.062,2.021V13.611H9.422v0.674H10.1v2.694H9.422v0.674h1.347ZM8.748,14.285V12.264H8.074v2.695H7.4V13.611H6.727v2.021H6.054v0.674H6.727v4.042h4.042V19H10.1v0.674H7.4V15.632H8.074v2.694H8.748V14.959H9.422V14.285H8.748ZM14.5,19.674V19H13.827V15.632H14.5V14.959H13.827V12.938H13.153v2.021H12.48v0.674h0.674V19H12.48v0.674H14.5Zm3.368,0V16.306h2.021V15.632H17.869V12.264H17.195v7.41H15.848V14.285H15.174v5.389H14.5v0.674h5.389V19.674H17.869ZM3.937,9.689V9.016H3.263V9.689H3.937ZM4.61,3.627V4.3H3.937V4.974H5.284V4.3H8.652V4.974H9.326V3.627H4.61ZM3.937,5.648V4.974H3.263V5.648H3.937ZM9.326,9.016H10V8.342H9.326V7.668H8.652V6.995H7.978V7.668H5.958V6.995H5.284V7.668H4.61V8.342H3.937V9.016H4.61v2.021H9.326V9.016ZM6.631,6.995V6.321H7.3V6.995H7.978V5.648H5.958V6.995H6.631ZM5.284,4.974V5.648H5.958V4.974H5.284ZM7.3,10.363V9.689H8.652v0.674H7.3Zm0-1.347V8.342H8.652V9.016H7.3ZM7.978,4.974V5.648H8.652V4.974H7.978ZM6.631,9.689v0.674H5.284V9.689H6.631Zm0-1.347V9.016H5.284V8.342H6.631Zm4.042,0.674H10V9.689h0.674V9.016Zm1.711,2.021h0.674V9.689H12.384v1.347Zm0.674-7.41V9.689h0.674V8.342h2.021v2.694h0.674V8.342H19.12v2.021H17.773v0.674h2.021V3.627H13.057Zm0.674,2.694h2.021V7.668H13.731V6.321ZM15.752,4.3V5.648H13.731V4.3h2.021Zm0.674,2.021H19.12V7.668H16.425V6.321ZM19.12,4.3V5.648H16.425V4.3H19.12Z"/>
</svg>
