<?xml version="1.0" encoding="UTF-8"?>
<!DOCTYPE svg PUBLIC "-//W3C//DTD SVG 1.1//EN" "http://www.w3.org/Graphics/SVG/1.1/DTD/svg11.dtd">
<svg xmlns="http://www.w3.org/2000/svg" version="1.1" width="250px" height="140px" style="shape-rendering:geometricPrecision; text-rendering:geometricPrecision; image-rendering:optimizeQuality; fill-rule:evenodd; clip-rule:evenodd" xmlns:xlink="http://www.w3.org/1999/xlink">
<g><path style="opacity:1" fill="#3e4045" d="M 66.5,-0.5 C 105.167,-0.5 143.833,-0.5 182.5,-0.5C 218.431,3.09645 240.765,22.4298 249.5,57.5C 249.5,65.5 249.5,73.5 249.5,81.5C 240.765,116.57 218.431,135.904 182.5,139.5C 143.833,139.5 105.167,139.5 66.5,139.5C 30.5687,135.904 8.23534,116.57 -0.5,81.5C -0.5,73.5 -0.5,65.5 -0.5,57.5C 8.23534,22.4298 30.5687,3.09645 66.5,-0.5 Z"/></g>
<g><path style="opacity:1" fill="#0a0a0b" d="M 171.5,13.5 C 204.572,11.4374 226.072,26.1041 236,57.5C 239.933,86.8078 228.766,107.975 202.5,121C 176.96,130.265 155.126,124.765 137,104.5C 124.825,87.2335 122.159,68.5669 129,48.5C 137.539,29.837 151.705,18.1703 171.5,13.5 Z"/></g>
<g><path style="opacity:1" fill="#cdcecf" d="M 66.5,32.5 C 67.8221,32.33 68.9887,32.6634 70,33.5C 70.6667,36.5 70.6667,39.5 70,42.5C 68.6667,43.8333 67.3333,43.8333 66,42.5C 65.2534,39.0764 65.42,35.7431 66.5,32.5 Z"/></g>
<g><path style="opacity:1" fill="#cfcfcf" d="M 175.5,40.5 C 177.604,40.2011 179.604,40.5344 181.5,41.5C 171.136,55.0312 172.469,67.1979 185.5,78C 192.213,81.303 199.213,82.303 206.5,81C 195.912,97.7174 181.912,101.384 164.5,92C 153.304,81.8457 150.47,69.679 156,55.5C 160.995,48.4329 167.495,43.4329 175.5,40.5 Z"/></g>
<g><path style="opacity:1" fill="#cecfd0" d="M 42.5,42.5 C 45.6136,43.0913 48.1136,44.758 50,47.5C 50.8333,50.6667 49.6667,51.8333 46.5,51C 45,49.5 43.5,48 42,46.5C 41.4209,45.0715 41.5876,43.7382 42.5,42.5 Z"/></g>
<g><path style="opacity:1" fill="#cececf" d="M 90.5,42.5 C 93.6802,42.1762 94.8469,43.5096 94,46.5C 92.1422,49.4122 89.6422,50.9122 86.5,51C 85.4829,49.9505 85.3162,48.7839 86,47.5C 87.7073,45.9625 89.2073,44.2959 90.5,42.5 Z"/></g>
<g><path style="opacity:1" fill="#d4d5d6" d="M 61.5,51.5 C 83.0461,50.8699 89.8794,60.5366 82,80.5C 76.2887,86.1171 69.4553,87.9504 61.5,86C 50.2904,79.5597 47.4571,70.393 53,58.5C 55.6278,55.7895 58.4611,53.4562 61.5,51.5 Z"/></g>
<g><path style="opacity:1" fill="#f5f5f5" d="M 63.5,53.5 C 77.7202,52.8845 84.2202,59.5512 83,73.5C 78.6033,83.947 71.1033,87.1137 60.5,83C 52.6893,77.5441 50.5227,70.3774 54,61.5C 56.7348,58.2308 59.9014,55.5641 63.5,53.5 Z"/></g>
<g><path style="opacity:1" fill="#dcddde" d="M 64.5,55.5 C 78.7396,56.2157 83.573,63.2157 79,76.5C 69.351,85.4066 61.351,84.0733 55,72.5C 54.0077,64.4827 57.1744,58.816 64.5,55.5 Z"/></g>
<g><path style="opacity:1" fill="#c8c8ca" d="M 32.5,66.5 C 35.5184,66.3354 38.5184,66.502 41.5,67C 42.8333,68.3333 42.8333,69.6667 41.5,71C 38.5,71.6667 35.5,71.6667 32.5,71C 31.2721,69.5098 31.2721,68.0098 32.5,66.5 Z"/></g>
<g><path style="opacity:1" fill="#c8c9ca" d="M 94.5,66.5 C 97.5184,66.3354 100.518,66.502 103.5,67C 104.833,68.3333 104.833,69.6667 103.5,71C 100.5,71.6667 97.5,71.6667 94.5,71C 93.2721,69.5098 93.2721,68.0098 94.5,66.5 Z"/></g>
<g><path style="opacity:1" fill="#cfcfd0" d="M 46.5,86.5 C 49.6802,86.1762 50.8469,87.5096 50,90.5C 48.1422,93.4122 45.6422,94.9122 42.5,95C 41.4829,93.9505 41.3162,92.7839 42,91.5C 43.7073,89.9625 45.2073,88.2959 46.5,86.5 Z"/></g>
<g><path style="opacity:1" fill="#cecfd0" d="M 86.5,86.5 C 89.6136,87.0913 92.1136,88.758 94,91.5C 94.8333,94.6667 93.6667,95.8333 90.5,95C 89,93.5 87.5,92 86,90.5C 85.4209,89.0715 85.5876,87.7382 86.5,86.5 Z"/></g>
<g><path style="opacity:1" fill="#cdcecf" d="M 66.5,94.5 C 67.8221,94.33 68.9887,94.6634 70,95.5C 70.6667,98.5 70.6667,101.5 70,104.5C 68.6667,105.833 67.3333,105.833 66,104.5C 65.2534,101.076 65.42,97.7431 66.5,94.5 Z"/></g>
</svg>
