<?xml version="1.0" standalone="no"?><!DOCTYPE svg PUBLIC "-//W3C//DTD SVG 1.1//EN" "http://www.w3.org/Graphics/SVG/1.1/DTD/svg11.dtd"><svg t="1746252067024" class="icon" viewBox="0 0 1024 1024" version="1.1" xmlns="http://www.w3.org/2000/svg" p-id="6940" xmlns:xlink="http://www.w3.org/1999/xlink" width="200" height="200"><path d="M514.003122 26.275433c-268.223904 0-485.661122 217.437218-485.661122 485.661122 0 268.222881 217.437218 485.661122 485.661122 485.661122 268.222881 0 485.661122-217.438241 485.661122-485.661122C999.66322 243.711628 782.226003 26.275433 514.003122 26.275433zM514.003122 943.631578c-238.423181 0-431.701163-193.276958-431.701163-431.698093S275.579941 80.234369 514.003122 80.234369c238.419088 0 431.697069 193.277982 431.697069 431.699116S752.42221 943.631578 514.003122 943.631578z" fill="#6495ED" p-id="6941"></path><path d="M211.571115 640.434138 243.992525 640.434138 243.992525 528.146749 334.715783 528.146749 334.715783 495.724315 243.992525 495.724315 243.992525 415.859359 334.715783 415.859359 334.715783 383.437949 211.571115 383.437949Z" fill="#6495ED" p-id="6942"></path><path d="M481.543849 532.346397c16.949021-16.946974 25.542746-37.72623 25.542746-61.756529 0-23.932062-8.592702-44.660152-25.542746-61.61122-14.137998-14.133905-31.532157-22.696931-51.696406-25.453718l-73.27077-0.086981 0 256.996189 32.422434 0 0-82.541925 29.845749 0 52.999075 82.541925 39.226397 0L453.379393 551.47506C463.684086 547.176151 473.119993 540.7723 481.543849 532.346397zM389.00013 416.007739l30.934546 0c15.165398 0 27.78174 5.222955 38.570457 15.9646 10.774391 10.734482 16.010649 23.366174 16.010649 38.618553 0 15.260565-5.242398 27.92091-16.023952 38.703487-10.786671 10.784624-23.39892 16.027022-38.557154 16.027022l-30.934546 0L389.00013 416.007739z" fill="#6495ED" p-id="6943"></path><path d="M518.538415 640.434138 656.555815 640.434138 656.555815 608.011704 550.960849 608.011704 550.960849 528.146749 656.555815 528.146749 656.555815 495.724315 550.960849 495.724315 550.960849 415.859359 656.555815 415.859359 656.555815 383.437949 518.538415 383.437949Z" fill="#6495ED" p-id="6944"></path><path d="M816.435129 415.859359 816.435129 383.437949 678.418752 383.437949 678.418752 640.434138 816.435129 640.434138 816.435129 608.011704 710.841186 608.011704 710.841186 528.146749 816.435129 528.146749 816.435129 495.724315 710.841186 495.724315 710.841186 415.859359Z" fill="#6495ED" p-id="6945"></path></svg>