<svg xmlns="http://www.w3.org/2000/svg" width="729" height="729"><path fill="#888" fill-rule="evenodd" d="M166.165.031h294.848c95.125-.003 160.105-2.158 212.89 39.978 56.32 44.958 54.971 129.238 54.972 231.871v200.888c.002 58.348 2.37 117.157-13.993 158.911-10.625 27.113-31.67 51.232-53.972 66.963-51.006 35.979-142.184 29.982-229.882 29.983H244.124c-49.024.002-98.619 1.969-135.93-9.994-33.436-10.722-63.688-34.75-80.958-61.966C-4.39 606.824.251 523.18.25 440.786V239.898C.248 173.982.202 114.993 25.237 74.989c19.81-31.655 52.894-57.782 93.952-67.962L166.165.031ZM97.2 214.911l-15.992 5.997c-8.322 9.751-7.905 51.507 1 59.967 13.397 12.727 56.131 5.088 66.965-2.999 5.632-18.236 5.736-45.56-3.998-58.967-12.671-3.759-30.211-4.096-47.975-3.998Zm197.898 30.983-29.984 3.998c-30.509 7.557-52.614 25.362-63.967 51.971-10.039 23.528-16.158 63.464-10.995 96.946 12.957 84.019 24.061 101.309 108.944 113.937 22.881 3.403 51.345-.095 69.964-5.997 59.968-19.008 85.125-122.855 55.971-197.89-19.399-49.93-59.374-63.728-129.933-62.965Zm260.866 0c-19.96 7.688-39.331 5.022-54.972 14.992-28.367 18.082-46.378 94.523-11.994 121.932 17.406 13.874 78.021 21.544 86.956 36.979 4.198 5.669 2.892 14.926.999 21.988-16.916 20.907-82.071 4.499-103.946-.999l.999 64.963c72.11 5.69 156.011 24.516 175.91-46.973 2.51-9.019 5.983-23.506 3.998-35.98l-4.998-32.982c-9.567-23.856-36.399-34.137-61.968-41.977-15.172-4.652-36.436-4.751-42.978-17.99-1.554-5.29-.304-10.318 1-14.991 22.151-16.586 69.575-6.55 95.95 0 .286-11.275 2.178-56.226-2.998-59.967-19.107-10.926-53.141-9.106-81.958-8.995Zm-247.872 59.967c11.869.062 24.886 1.739 31.983 6.996 22.303 16.518 22.658 104.771 4.997 127.929-4.258 5.584-13.872 9.455-21.988 10.993-16.225 3.077-36.367-1.514-42.978-8.995-17.211-19.475-18.411-99.518-2.999-122.931 7.143-10.85 17.405-9.016 30.985-13.992Zm-228.883.999v202.887h70.964l-1-202.887H79.209Z"/></svg>
