<?xml version="1.0" encoding="UTF-8"?>
<!DOCTYPE svg PUBLIC "-//W3C//DTD SVG 1.1//EN" "http://www.w3.org/Graphics/SVG/1.1/DTD/svg11.dtd">
<svg xmlns="http://www.w3.org/2000/svg" version="1.1" width="250px" height="140px" style="shape-rendering:geometricPrecision; text-rendering:geometricPrecision; image-rendering:optimizeQuality; fill-rule:evenodd; clip-rule:evenodd" xmlns:xlink="http://www.w3.org/1999/xlink">
<g><path style="opacity:1" fill="#e5e5e5" d="M 66.5,-0.5 C 105.167,-0.5 143.833,-0.5 182.5,-0.5C 218.431,3.09645 240.765,22.4298 249.5,57.5C 249.5,65.5 249.5,73.5 249.5,81.5C 240.765,116.57 218.431,135.904 182.5,139.5C 143.833,139.5 105.167,139.5 66.5,139.5C 30.5687,135.904 8.23534,116.57 -0.5,81.5C -0.5,73.5 -0.5,65.5 -0.5,57.5C 8.23534,22.4298 30.5687,3.09645 66.5,-0.5 Z"/></g>
<g><path style="opacity:1" fill="#fafafa" d="M 60.5,13.5 C 93.9275,12.1147 115.094,27.448 124,59.5C 126.591,94.8521 110.758,116.685 76.5,125C 52.9914,127.159 34.4914,118.659 21,99.5C 4.5747,64.7855 12.7414,37.6189 45.5,18C 50.6044,16.4241 55.6044,14.9241 60.5,13.5 Z"/></g>
<g><path style="opacity:1" fill="#3e3e3e" d="M 66.5,32.5 C 67.8221,32.33 68.9887,32.6634 70,33.5C 70.6667,36.5 70.6667,39.5 70,42.5C 68.6667,43.8333 67.3333,43.8333 66,42.5C 65.2534,39.0764 65.42,35.7431 66.5,32.5 Z"/></g>
<g><path style="opacity:1" fill="#2a2a2a" d="M 172.5,41.5 C 180.279,40.3144 181.779,42.3144 177,47.5C 172.09,59.8419 174.924,70.0085 185.5,78C 192.213,81.303 199.213,82.303 206.5,81C 198.808,93.9086 187.475,98.9086 172.5,96C 156.998,89.1658 150.831,77.3324 154,60.5C 157.687,51.6475 163.854,45.3141 172.5,41.5 Z"/></g>
<g><path style="opacity:1" fill="#3d3d3d" d="M 42.5,42.5 C 45.6136,43.0913 48.1136,44.758 50,47.5C 50.8333,50.6667 49.6667,51.8333 46.5,51C 45,49.5 43.5,48 42,46.5C 41.4209,45.0715 41.5876,43.7382 42.5,42.5 Z"/></g>
<g><path style="opacity:1" fill="#3d3d3d" d="M 90.5,42.5 C 93.6802,42.1762 94.8469,43.5096 94,46.5C 92.1422,49.4122 89.6422,50.9122 86.5,51C 85.4829,49.9505 85.3162,48.7839 86,47.5C 87.7073,45.9625 89.2073,44.2959 90.5,42.5 Z"/></g>
<g><path style="opacity:1" fill="#343434" d="M 61.5,51.5 C 80.1929,50.0182 87.6929,58.3515 84,76.5C 79.1358,85.466 71.6358,88.6326 61.5,86C 49.7971,79.0284 47.2971,69.5284 54,57.5C 56.4784,55.3606 58.9784,53.3606 61.5,51.5 Z"/></g>
<g><path style="opacity:1" fill="#0d0d0d" d="M 63.5,53.5 C 77.7202,52.8845 84.2202,59.5512 83,73.5C 78.6033,83.947 71.1033,87.1137 60.5,83C 52.714,77.5813 50.5474,70.4146 54,61.5C 56.7348,58.2308 59.9014,55.5641 63.5,53.5 Z"/></g>
<g><path style="opacity:1" fill="#2c2c2c" d="M 64.5,55.5 C 78.7416,56.2174 83.575,63.2174 79,76.5C 69.351,85.4066 61.351,84.0733 55,72.5C 54.0077,64.4827 57.1744,58.816 64.5,55.5 Z"/></g>
<g><path style="opacity:1" fill="#454545" d="M 32.5,66.5 C 35.5184,66.3354 38.5184,66.502 41.5,67C 42.8333,68.3333 42.8333,69.6667 41.5,71C 38.5,71.6667 35.5,71.6667 32.5,71C 31.2721,69.5098 31.2721,68.0098 32.5,66.5 Z"/></g>
<g><path style="opacity:1" fill="#454545" d="M 94.5,66.5 C 97.5184,66.3354 100.518,66.502 103.5,67C 104.833,68.3333 104.833,69.6667 103.5,71C 100.5,71.6667 97.5,71.6667 94.5,71C 93.2721,69.5098 93.2721,68.0098 94.5,66.5 Z"/></g>
<g><path style="opacity:1" fill="#3d3d3d" d="M 46.5,86.5 C 49.6802,86.1762 50.8469,87.5096 50,90.5C 48.1422,93.4122 45.6422,94.9122 42.5,95C 41.4829,93.9505 41.3162,92.7839 42,91.5C 43.7073,89.9625 45.2073,88.2959 46.5,86.5 Z"/></g>
<g><path style="opacity:1" fill="#3d3d3d" d="M 86.5,86.5 C 89.6136,87.0913 92.1136,88.758 94,91.5C 94.8333,94.6667 93.6667,95.8333 90.5,95C 89,93.5 87.5,92 86,90.5C 85.4209,89.0715 85.5876,87.7382 86.5,86.5 Z"/></g>
<g><path style="opacity:1" fill="#3f3f3f" d="M 66.5,94.5 C 67.8221,94.33 68.9887,94.6634 70,95.5C 70.6667,98.5 70.6667,101.5 70,104.5C 68.6667,105.833 67.3333,105.833 66,104.5C 65.2534,101.076 65.42,97.7431 66.5,94.5 Z"/></g>
</svg>
