<?xml version="1.0" standalone="no"?><!DOCTYPE svg PUBLIC "-//W3C//DTD SVG 1.1//EN" "http://www.w3.org/Graphics/SVG/1.1/DTD/svg11.dtd"><svg t="1746253392392" class="icon" viewBox="0 0 1024 1024" version="1.1" xmlns="http://www.w3.org/2000/svg" p-id="3251" xmlns:xlink="http://www.w3.org/1999/xlink" width="200" height="200"><path d="M512.1 894.1c-50.7 0-99.9-10.1-146.2-30.1-44.7-19.3-84.8-46.8-119.3-82-34.4-35.1-61.4-75.9-80.3-121.4-19.5-47.1-29.4-97-29.4-148.5s9.9-101.5 29.4-148.5c18.9-45.5 45.9-86.3 80.3-121.4 34.4-35.1 74.6-62.7 119.3-82 46.3-20 95.5-30.1 146.2-30.1 50.7 0 99.9 10.1 146.2 30.1 44.7 19.3 84.8 46.8 119.3 82 34.4 35.1 61.4 75.9 80.3 121.4 19.5 47.1 29.4 97 29.4 148.5s-9.9 101.5-29.4 148.5C839 706.1 812 747 777.6 782.1c-34.4 35.1-74.6 62.7-119.3 82-46.3 19.9-95.5 30-146.2 30z m0-714c-179.3 0-325.2 148.9-325.2 332s145.9 332 325.2 332 325.2-148.9 325.2-332-145.9-332-325.2-332z" p-id="3252" fill="#FF5B00"></path><path d="M512.1 460.7c-6.4 0-12.8-2.4-17.7-7.3L376.6 335.6c-9.8-9.8-9.8-25.6 0-35.4 9.8-9.8 25.6-9.8 35.4 0L529.8 418c9.8 9.8 9.8 25.6 0 35.4-4.9 4.9-11.3 7.3-17.7 7.3z" p-id="3253" fill="#FF5B00"></path><path d="M512.7 460.7c-6.4 0-12.8-2.4-17.7-7.3-9.8-9.8-9.8-25.6 0-35.4l117.8-117.8c9.8-9.8 25.6-9.8 35.4 0 9.8 9.8 9.8 25.6 0 35.4L530.4 453.4c-4.9 4.9-11.3 7.3-17.7 7.3z" p-id="3254" fill="#FF5B00"></path><path d="M512.1 755.5c-13.8 0-25-11.2-25-25V430.8c0-13.8 11.2-25 25-25s25 11.2 25 25v299.7c0 13.8-11.2 25-25 25z" p-id="3255" fill="#FF5B00"></path><path d="M641.4 519.1H386c-13.8 0-25-11.2-25-25s11.2-25 25-25h255.4c13.8 0 25 11.2 25 25s-11.2 25-25 25zM641.4 615H386c-13.8 0-25-11.2-25-25s11.2-25 25-25h255.4c13.8 0 25 11.2 25 25s-11.2 25-25 25z" p-id="3256" fill="#FF5B00"></path></svg>